<svg width="67" height="48" viewBox="0 0 67 48" fill="none" xmlns="http://www.w3.org/2000/svg">
<g clip-path="url(#clip0)">
<path d="M14.4292 46.5292C14.3389 46.5691 14.2281 46.601 14.0998 46.6281C13.9699 46.6552 13.8321 46.668 13.688 46.668C13.4773 46.668 13.2825 46.6377 13.1003 46.577C12.9182 46.5164 12.7598 46.4255 12.622 46.3027C12.4858 46.1798 12.3797 46.0235 12.3005 45.8352C12.2213 45.647 12.1833 45.4269 12.1833 45.1748C12.1833 44.8924 12.2276 44.65 12.3179 44.449C12.4082 44.248 12.5254 44.0836 12.6679 43.9576C12.8105 43.8316 12.972 43.7391 13.151 43.6784C13.33 43.6194 13.5074 43.5891 13.6816 43.5891C13.8115 43.5891 13.9366 43.6003 14.0586 43.6242C14.179 43.6465 14.2867 43.6784 14.3849 43.7199V44.3038C14.2962 44.2655 14.2027 44.2352 14.1045 44.2113C14.0047 44.1873 13.8986 44.1762 13.7846 44.1762C13.6705 44.1762 13.5612 44.1937 13.4583 44.2288C13.3538 44.2655 13.2619 44.3213 13.1811 44.3963C13.1019 44.4729 13.037 44.5734 12.991 44.6994C12.9435 44.827 12.9198 44.9786 12.9198 45.1541C12.9198 45.2833 12.9388 45.4045 12.9736 45.5178C13.01 45.6326 13.0623 45.73 13.132 45.8097C13.2001 45.8895 13.2888 45.9549 13.3965 46.0043C13.5026 46.0538 13.6309 46.0793 13.7751 46.0793C13.9049 46.0793 14.0237 46.0666 14.1299 46.0394C14.236 46.0123 14.3358 45.9804 14.4308 45.9421V46.5292H14.4292ZM16.0226 44.2671H15.0944V43.6625H17.6603V44.2671H16.7322V46.593H16.021V44.2671H16.0226ZM20.2041 46.2819H20.1914C20.1518 46.325 20.1027 46.3681 20.0473 46.4127C19.9918 46.4574 19.9269 46.4989 19.8556 46.5388C19.7843 46.5786 19.7036 46.6105 19.6164 46.6345C19.5277 46.66 19.4327 46.6712 19.3298 46.6712C19.192 46.6712 19.0637 46.6488 18.9417 46.6058C18.8213 46.5627 18.72 46.5005 18.6328 46.4191C18.5473 46.3378 18.4792 46.2388 18.4301 46.1224C18.381 46.0075 18.3557 45.8783 18.3557 45.7347C18.3557 45.5784 18.3842 45.4364 18.4412 45.312C18.4982 45.1876 18.5774 45.0807 18.6788 44.9945C18.7817 44.9084 18.9037 44.8414 19.0462 44.7967C19.1888 44.7521 19.3456 44.7281 19.5182 44.7281C19.645 44.7281 19.7606 44.7361 19.8667 44.7537C19.9728 44.7696 20.0663 44.7888 20.1455 44.8111V44.693C20.1455 44.6244 20.1344 44.559 20.1106 44.4952C20.0884 44.433 20.0504 44.3756 19.9997 44.3261C19.9491 44.2767 19.8825 44.2368 19.8002 44.2081C19.7178 44.1794 19.618 44.165 19.4992 44.165C19.3551 44.165 19.211 44.181 19.0668 44.2129C18.9227 44.2464 18.7659 44.2942 18.598 44.358V43.7981C18.7453 43.7343 18.8989 43.6848 19.0637 43.6497C19.2284 43.6146 19.401 43.5971 19.58 43.5955C19.7923 43.5955 19.9792 43.621 20.1375 43.6737C20.2959 43.7263 20.429 43.7981 20.5367 43.889C20.6444 43.9815 20.7236 44.09 20.7774 44.2145C20.8313 44.3389 20.8566 44.4761 20.8566 44.6228V45.7268C20.8566 45.9214 20.8582 46.0873 20.863 46.2261C20.8677 46.3649 20.8709 46.4893 20.8756 46.5978H20.2326L20.2041 46.2819ZM20.147 45.3439C20.0789 45.328 20.0013 45.3136 19.9126 45.3008C19.8239 45.2881 19.7352 45.2817 19.645 45.2817C19.4707 45.2817 19.3329 45.3152 19.2316 45.3854C19.1302 45.454 19.0795 45.5609 19.0795 45.7044C19.0795 45.7698 19.0906 45.8289 19.1143 45.8783C19.1365 45.9278 19.1682 45.9692 19.2078 46.0012C19.2474 46.0331 19.2917 46.057 19.344 46.0729C19.3963 46.0889 19.4501 46.0985 19.5087 46.0985C19.58 46.0985 19.6497 46.0889 19.7131 46.0698C19.778 46.0506 19.8366 46.0267 19.8905 45.9964C19.9443 45.9677 19.9934 45.9342 20.0362 45.8991C20.0789 45.8624 20.1154 45.8273 20.1455 45.7938V45.3439H20.147ZM23.4003 44.165C23.2768 44.1666 23.158 44.1985 23.0456 44.2575C22.9331 44.3166 22.8349 44.3963 22.7478 44.4984V45.8049C22.7779 45.84 22.8143 45.8735 22.8571 45.9086C22.8998 45.9421 22.9458 45.974 22.998 46.0028C23.0503 46.0299 23.1073 46.0538 23.1707 46.0713C23.2325 46.0905 23.299 46.0985 23.3671 46.0985C23.4764 46.0985 23.5746 46.0745 23.6617 46.0267C23.7488 45.9788 23.8201 45.9118 23.8755 45.8257C23.9325 45.7395 23.9753 45.6358 24.007 45.5162C24.0371 45.395 24.0513 45.2625 24.0513 45.1142C24.0513 44.9578 24.0355 44.8191 24.0038 44.6994C23.9737 44.5814 23.9294 44.4809 23.8723 44.4027C23.8153 44.3245 23.7472 44.2639 23.668 44.224C23.5888 44.1841 23.4985 44.165 23.4003 44.165ZM23.4938 46.668C23.337 46.668 23.196 46.6393 23.0677 46.5818C22.941 46.5244 22.8349 46.4526 22.751 46.3681H22.7383C22.7399 46.4079 22.743 46.4654 22.7446 46.5388C22.7462 46.6121 22.7478 46.6919 22.7478 46.7796V47.9984H22.0366V43.6625H22.6607L22.6908 43.9911H22.7019C22.7906 43.8747 22.903 43.779 23.0408 43.7024C23.1786 43.6258 23.3386 43.5891 23.5223 43.5891C23.6807 43.5891 23.8359 43.6194 23.9896 43.6784C24.1416 43.7391 24.2778 43.8284 24.3966 43.9512C24.5138 44.0757 24.6089 44.2304 24.6801 44.4187C24.7514 44.6053 24.7862 44.8286 24.7862 45.0871C24.7862 45.3599 24.7482 45.5944 24.6722 45.7938C24.5962 45.9916 24.4964 46.1575 24.3713 46.2867C24.2477 46.4175 24.1099 46.5132 23.9579 46.5755C23.8106 46.6377 23.6538 46.668 23.4938 46.668ZM26.3971 44.2671H25.4689V43.6625H28.0348V44.2671H27.1066V46.593H26.3955V44.2671H26.3971ZM30.5785 46.2819H30.5659C30.5263 46.325 30.4772 46.3681 30.4217 46.4127C30.3663 46.4574 30.3013 46.4989 30.2301 46.5388C30.1588 46.5786 30.078 46.6105 29.9909 46.6345C29.9022 46.66 29.8072 46.6712 29.7042 46.6712C29.5664 46.6712 29.4381 46.6488 29.3162 46.6058C29.1958 46.5627 29.0944 46.5005 29.0073 46.4191C28.9218 46.3378 28.8537 46.2388 28.8046 46.1224C28.7555 46.0075 28.7301 45.8783 28.7301 45.7347C28.7301 45.5784 28.7586 45.4364 28.8157 45.312C28.8727 45.1876 28.9519 45.0807 29.0532 44.9945C29.1562 44.9084 29.2782 44.8414 29.4207 44.7967C29.5633 44.7521 29.7201 44.7281 29.8927 44.7281C30.0194 44.7281 30.135 44.7361 30.2412 44.7537C30.3473 44.7696 30.4407 44.7888 30.5199 44.8111V44.693C30.5199 44.6244 30.5088 44.559 30.4851 44.4952C30.4629 44.433 30.4249 44.3756 30.3742 44.3261C30.3235 44.2767 30.257 44.2368 30.1746 44.2081C30.0923 44.1794 29.9925 44.165 29.8737 44.165C29.7296 44.165 29.5854 44.181 29.4413 44.2129C29.2972 44.2464 29.1404 44.2942 28.9725 44.358V43.7981C29.1198 43.7343 29.2734 43.6848 29.4381 43.6497C29.6028 43.6146 29.7755 43.5971 29.9545 43.5955C30.1667 43.5955 30.3536 43.621 30.512 43.6737C30.6704 43.7263 30.8034 43.7981 30.9111 43.889C31.0188 43.9815 31.098 44.09 31.1519 44.2145C31.2057 44.3389 31.2311 44.4761 31.2311 44.6228V45.7268C31.2311 45.9214 31.2327 46.0873 31.2374 46.2261C31.2422 46.3649 31.2453 46.4893 31.2501 46.5978H30.607L30.5785 46.2819ZM30.5215 45.3439C30.4534 45.328 30.3758 45.3136 30.2871 45.3008C30.1984 45.2881 30.1097 45.2817 30.0194 45.2817C29.8452 45.2817 29.7074 45.3152 29.606 45.3854C29.5046 45.454 29.454 45.5609 29.454 45.7044C29.454 45.7698 29.4651 45.8289 29.4888 45.8783C29.511 45.9278 29.5427 45.9692 29.5823 46.0012C29.6219 46.0331 29.6662 46.057 29.7185 46.0729C29.7707 46.0889 29.8246 46.0985 29.8832 46.0985C29.9545 46.0985 30.0242 46.0889 30.0875 46.0698C30.1525 46.0506 30.2111 46.0267 30.2649 45.9964C30.3188 45.9677 30.3679 45.9342 30.4106 45.8991C30.4534 45.8624 30.4898 45.8273 30.5199 45.7938V45.3439H30.5215ZM33.1238 44.2767V46.593H32.4127V43.6625H34.9532V46.593H34.2421V44.2767H33.1238ZM39.8554 46.5292C39.7651 46.5691 39.6542 46.601 39.5259 46.6281C39.396 46.6552 39.2582 46.668 39.1141 46.668C38.9034 46.668 38.7086 46.6377 38.5265 46.577C38.3443 46.5164 38.1859 46.4255 38.0481 46.3027C37.9119 46.1798 37.8058 46.0235 37.7266 45.8352C37.6474 45.647 37.6094 45.4269 37.6094 45.1748C37.6094 44.8924 37.6537 44.65 37.744 44.449C37.8343 44.248 37.9515 44.0836 38.0941 43.9576C38.2366 43.8316 38.3982 43.7391 38.5772 43.6784C38.7561 43.6194 38.9335 43.5891 39.1078 43.5891C39.2376 43.5891 39.3628 43.6003 39.4847 43.6242C39.6051 43.6465 39.7128 43.6784 39.811 43.7199V44.3038C39.7223 44.2655 39.6289 44.2352 39.5307 44.2113C39.4309 44.1873 39.3247 44.1762 39.2107 44.1762C39.0967 44.1762 38.9874 44.1937 38.8844 44.2288C38.7799 44.2655 38.688 44.3213 38.6072 44.3963C38.5281 44.4729 38.4631 44.5734 38.4172 44.6994C38.3697 44.827 38.3459 44.9786 38.3459 45.1541C38.3459 45.2833 38.3649 45.4045 38.3998 45.5178C38.4362 45.6326 38.4885 45.73 38.5581 45.8097C38.6263 45.8895 38.715 45.9549 38.8227 46.0043C38.9288 46.0538 39.0571 46.0793 39.2012 46.0793C39.3311 46.0793 39.4499 46.0666 39.556 46.0394C39.6621 46.0123 39.7619 45.9804 39.8569 45.9421V46.5292H39.8554ZM41.4487 44.2671H40.5206V43.6625H43.0865V44.2671H42.1583V46.593H41.4472V44.2671H41.4487ZM43.5585 43.6625H44.3203L44.7559 44.7233C44.9206 45.127 45.0362 45.4253 45.1044 45.6199H45.117C45.1677 45.4683 45.2722 45.1892 45.4354 44.7792L45.8868 43.6625H46.6581L44.7844 48H44.0812L44.748 46.4303L43.5585 43.6625ZM49.7372 43.6625V45.9852H50.1807V47.6219H49.4901V46.593H47.6212V47.6219H46.9306L47.1349 45.9852C47.2616 45.8496 47.3756 45.7092 47.4786 45.5609C47.5816 45.4125 47.6703 45.2466 47.7447 45.0631C47.8191 44.8797 47.8777 44.6739 47.9221 44.4458C47.9664 44.2176 47.9949 43.956 48.006 43.6625H49.7372V43.6625ZM48.5968 44.2575C48.5747 44.4601 48.5446 44.6404 48.5065 44.8031C48.4685 44.9642 48.421 45.111 48.3656 45.2466C48.3117 45.3806 48.2484 45.5066 48.1771 45.6247C48.1058 45.7427 48.0282 45.8592 47.9411 45.974V45.9868H49.0261V44.2591H48.5968V44.2575ZM53.7033 43.6625V46.593H52.9921V45.7427C52.9921 45.3583 53 45.0105 53.019 44.6994H53.0064C52.8844 44.9116 52.6975 45.1892 52.4473 45.5353L51.668 46.593H51.0123V43.6625H51.7234V44.5128C51.7234 44.9323 51.7139 45.2801 51.6965 45.5561H51.7092C51.8248 45.3551 52.0101 45.0759 52.2667 44.7218L53.0475 43.6625H53.7033ZM56.0268 44.2161C55.8605 44.2161 55.7386 44.2496 55.6625 44.3134C55.6182 44.3501 55.5849 44.3931 55.5659 44.4458C55.5438 44.4984 55.5343 44.5527 55.5343 44.6117C55.5343 44.7026 55.5564 44.7776 55.5976 44.835C55.6404 44.8924 55.699 44.9355 55.7766 44.9658C55.8114 44.9786 55.851 44.9866 55.897 44.9914C55.9429 44.9961 55.9967 44.9993 56.0585 44.9993H56.5369V44.2161H56.0268ZM54.7977 44.642C54.7977 44.5574 54.8072 44.4745 54.8262 44.3931C54.8453 44.3118 54.8753 44.2336 54.9149 44.1618C54.9545 44.0884 55.0052 44.0214 55.067 43.9608C55.1272 43.8986 55.2 43.846 55.284 43.8013C55.3679 43.7566 55.4661 43.7231 55.577 43.6976C55.6879 43.6737 55.8178 43.6609 55.9651 43.6609H57.2417V46.5914H56.5369V45.5513H55.9746L55.4218 46.5914H54.6536L55.2935 45.4141V45.4029C55.1288 45.3295 55.0052 45.229 54.9229 45.0982C54.8405 44.9674 54.7977 44.8175 54.7977 44.642Z" fill="black"/>
<path fill-rule="evenodd" clip-rule="evenodd" d="M8.05498 18.7907H9.75133C9.9509 18.7907 10.1156 18.955 10.1156 19.1576V20.8661C10.1156 21.0671 9.95248 21.2314 9.75133 21.2314H8.05498C7.85542 21.2314 7.69227 21.0671 7.69227 20.8661V19.1576C7.69227 18.955 7.85542 18.7907 8.05498 18.7907ZM37.3949 38.7315H35.3105V25.3711H37.3949V31.0965H39.7644V25.3711H41.8868V38.7315H39.7644V33.0061H37.3949V38.7315ZM19.1469 25.3711V35.6782C19.1469 36.1615 19.2451 36.4981 19.44 36.6896C19.6348 36.881 19.8977 36.9767 20.2256 36.9767C20.5534 36.9767 20.8164 36.881 21.0128 36.6896C21.2092 36.4981 21.3058 36.1615 21.3058 35.6782V25.3711H23.2761V35.5441C23.2761 36.6257 23.0148 37.4553 22.4905 38.0344C21.9663 38.6134 21.1917 38.9022 20.1686 38.9022C19.1454 38.9022 18.3708 38.6134 17.8466 38.0344C17.3223 37.4553 17.0594 36.6257 17.0594 35.5441V25.3711H19.1469V25.3711ZM26.1952 28.5776C26.1952 27.496 26.4503 26.6665 26.9634 26.0874C27.475 25.5083 28.2432 25.2196 29.2664 25.2196C30.2896 25.2196 31.0578 25.5083 31.5694 26.0874C32.081 26.6665 32.336 27.496 32.336 28.5776V28.9972H30.3656V28.4436C30.3656 27.9602 30.2738 27.6205 30.0916 27.4226C29.9079 27.2248 29.6529 27.1275 29.3234 27.1275C28.9956 27.1275 28.739 27.2264 28.5552 27.4226C28.3715 27.6205 28.2812 27.9602 28.2812 28.4436C28.2812 28.9015 28.3826 29.3051 28.5837 29.656C28.7865 30.0054 29.0383 30.3372 29.3424 30.6483C29.6465 30.9593 29.9712 31.272 30.3181 31.5831C30.665 31.8942 30.9913 32.2356 31.2938 32.6041C31.5963 32.9726 31.8497 33.3937 32.0525 33.8643C32.2552 34.3349 32.355 34.8885 32.355 35.525C32.355 36.6066 32.0936 37.4361 31.5694 38.0152C31.0451 38.5943 30.2706 38.883 29.2474 38.883C28.2242 38.883 27.4497 38.5943 26.9254 38.0152C26.4012 37.4361 26.1382 36.6066 26.1382 35.525V34.705H28.1086V35.659C28.1086 36.1424 28.2068 36.479 28.4016 36.6704C28.598 36.8618 28.8593 36.9576 29.1888 36.9576C29.5182 36.9576 29.7796 36.8618 29.976 36.6704C30.1724 36.479 30.269 36.1424 30.269 35.659C30.269 35.2012 30.1676 34.7976 29.9665 34.4466C29.7637 34.0972 29.5119 33.7654 29.2078 33.4543C28.9053 33.1433 28.579 32.8306 28.2321 32.5195C27.8853 32.2084 27.559 31.8671 27.2564 31.4986C26.9539 31.13 26.7005 30.7089 26.4978 30.2383C26.2966 29.7661 26.1952 29.2125 26.1952 28.5776ZM15.0621 3.5399L12.87 6.68257C12.6071 7.06065 12.6974 7.58231 13.0712 7.84552C13.445 8.11034 13.9629 8.01941 14.2258 7.64293L16.4179 4.50184C16.6808 4.12377 16.5906 3.60371 16.2168 3.33889C15.843 3.07408 15.325 3.16341 15.0621 3.5399ZM1.5072 3.5399L3.6993 6.68098C3.96222 7.05906 3.87194 7.58071 3.49814 7.84393C3.12434 8.10874 2.60641 8.01781 2.34349 7.64133L0.149804 4.50184C-0.113121 4.12377 -0.0228399 3.60371 0.350957 3.33889C0.726339 3.07408 1.24269 3.16341 1.5072 3.5399ZM9.11302 0.83592V5.35372C9.11302 5.81475 8.74081 6.18804 8.28306 6.18804C7.82532 6.18804 7.45311 5.81475 7.45311 5.35372V0.83592C7.45311 0.374888 7.82532 0 8.28306 0C8.74081 0 9.11302 0.373292 9.11302 0.83592ZM10.2598 30.2383V35.5043C10.2598 37.3691 8.73764 38.9022 6.88608 38.9022H2.42585V16.2398C2.42585 12.9807 5.04877 10.3389 8.28465 10.3389C11.5205 10.3389 14.1434 12.9823 14.1434 16.2398V29.6863C14.1434 29.991 13.8964 30.2383 13.5954 30.2383H10.2598V30.2383ZM4.51025 36.8028H6.88608C7.58774 36.8028 8.17536 36.211 8.17536 35.5043V28.1373H12.0591V16.2398C12.0591 14.1404 10.369 12.4383 8.28465 12.4383C6.20025 12.4383 4.51025 14.1404 4.51025 16.2398V36.8028V36.8028Z" fill="black"/>
<path d="M62.2626 29.0545V38.7314H60.3873V25.371H63.0022L65.1437 33.3681V25.371H67.0016V38.7314H64.8601L62.2626 29.0545ZM48.1628 33.4048L47.5182 34.6268V38.7298H45.4338V25.3694H47.5182V31.1906L50.2472 25.3694H52.3316L49.4315 31.3246L52.3316 38.7298H50.1902L48.1628 33.4048ZM55.0416 25.371H57.126V38.7314H55.0416V25.371Z" fill="black"/>
</g>
<defs>
<clipPath id="clip0">
<rect width="67" height="48" fill="white"/>
</clipPath>
</defs>
</svg>
