<svg width="20" height="19" viewBox="0 0 24 24" fill="none" xmlns="http://www.w3.org/2000/svg">
<path d="M12.4286 7.47656C12.4286 6.97489 12.2586 6.52581 11.9188 6.12932C11.5871 5.72475 11.1258 5.52246 10.5352 5.52246C9.61272 5.52246 8.81166 6.06864 8.13198 7.16099C7.46038 8.24526 7.12458 9.32547 7.12458 10.4016C7.12458 11.1946 7.29855 11.8015 7.64648 12.2222C7.99442 12.6349 8.43136 12.8412 8.95731 12.8412C10.0497 12.8412 10.8993 12.2061 11.5061 10.9357C12.1211 9.65723 12.4286 8.50419 12.4286 7.47656ZM10.0133 18.8371C6.631 18.8371 4.02553 17.7811 2.19685 15.6692C0.732282 13.9781 0 12.024 0 9.80692C0 7.16909 0.890067 4.92773 2.6702 3.08287C4.64453 1.02762 7.2945 0 10.6201 0C13.5007 0 15.7663 0.728237 17.417 2.18471C18.9625 3.56027 19.7352 5.34445 19.7352 7.53725C19.7352 9.38212 19.1809 10.96 18.0724 12.2708C16.972 13.5735 15.738 14.2249 14.3705 14.2249C13.5695 14.2249 12.9788 14.0347 12.5985 13.6544C12.2182 13.266 12.028 12.8008 12.028 12.2586C12.028 12.1696 12.0361 12.0766 12.0523 11.9795C12.0685 11.8824 12.0887 11.7812 12.113 11.6761C11.6842 12.6066 11.142 13.266 10.4866 13.6544C9.83119 14.0347 9.15555 14.2249 8.45968 14.2249C7.46443 14.2249 6.65527 13.8648 6.03223 13.1447C5.41727 12.4245 5.10979 11.498 5.10979 10.3652C5.10979 8.75502 5.63574 7.33496 6.68764 6.10505C7.74763 4.87514 8.88449 4.26018 10.0982 4.26018C10.9235 4.26018 11.6032 4.49888 12.1373 4.97628C12.6794 5.45368 12.9667 6.02818 12.999 6.69978L13.6059 4.66071H15.3901L13.7758 9.97684C13.6544 10.3895 13.5654 10.7213 13.5088 10.9721C13.4521 11.2229 13.4238 11.4455 13.4238 11.6396C13.4238 12.0038 13.5331 12.2708 13.7515 12.4407C13.9781 12.6025 14.233 12.6835 14.5162 12.6835C15.4386 12.6835 16.264 12.202 16.9922 11.2391C17.7285 10.2762 18.0967 9.018 18.0967 7.46443C18.0967 5.58719 17.4413 4.11454 16.1304 3.04646C14.8196 1.97028 13.0557 1.4322 10.8386 1.4322C7.76381 1.4322 5.41323 2.33036 3.78683 4.12667C2.39509 5.65597 1.69922 7.57771 1.69922 9.89188C1.69922 11.9148 2.36272 13.614 3.68973 14.9895C5.2433 16.6159 7.45633 17.4291 10.3288 17.4291C11.672 17.4291 12.9222 17.2188 14.0792 16.798C15.2363 16.3691 16.2963 15.7946 17.2592 15.0745L18.0603 16.1669C17.332 16.8142 16.2437 17.421 14.7953 17.9874C13.347 18.5539 11.7529 18.8371 10.0133 18.8371Z" fill="#8D8D8D"/>
</svg>
