<svg width="21" height="26" viewBox="0 0 21 26" fill="none" xmlns="http://www.w3.org/2000/svg">
<path d="M3.24 26V22.148H0.36V18.656H3.24V15.848H0.36V11.384H3.24V0.295998H11.448C14.76 0.295998 17.172 0.967998 18.684 2.312C20.22 3.656 20.988 5.504 20.988 7.856C20.988 9.248 20.676 10.556 20.052 11.78C19.428 13.004 18.384 13.988 16.92 14.732C15.48 15.476 13.512 15.848 11.016 15.848H8.676V18.656H14.22V22.148H8.676V26H3.24ZM8.676 11.384H10.476C12.012 11.384 13.224 11.12 14.112 10.592C15.024 10.064 15.48 9.212 15.48 8.036C15.48 5.852 14.04 4.76 11.16 4.76H8.676V11.384Z" fill="#39C9C0"/>
</svg>
