<svg width="402" height="138" viewBox="0 0 402 138" fill="none" xmlns="http://www.w3.org/2000/svg">
<path d="M237.639 52.2483L237.639 52.2483C249.002 56.7224 258.351 60.0747 265.691 62.308C277.477 65.6569 287.796 67.3247 296.654 67.3247C312.78 67.3247 326.471 61.0115 337.752 48.3517C349.06 35.4391 356.717 19.6255 360.714 0.895638L360.799 0.5H361.203H400H400.595L400.493 1.08636C394.908 32.9366 383.848 61.989 367.313 88.2387C367.312 88.2389 367.312 88.2391 367.312 88.2393L366.889 87.9728L237.639 52.2483ZM237.639 52.2483L163.392 23.0342C151.538 18.3186 139.237 15.0625 126.49 13.2659C119.334 12.1434 112.509 11.5815 106.015 11.5815C91.4601 11.5815 78.6728 14.2796 67.6667 19.692L67.6631 19.6939C56.8876 25.1033 46.8023 33.4346 37.4031 44.6693L37.3863 44.6893L37.3717 44.711C26.2084 61.2993 18.3797 76.227 13.9014 89.491L237.639 52.2483Z" stroke="#39C9C0"/>
</svg>
