<svg width="45" height="17" viewBox="0 0 45 17" fill="none" xmlns="http://www.w3.org/2000/svg">
<path d="M26.5652 6.46025L26.5654 6.46029C27.7523 6.92576 28.7215 7.27163 29.4765 7.50062C30.6879 7.84315 31.7287 8.00781 32.6055 8.00781C34.166 8.00781 35.4855 7.4067 36.5908 6.17212C37.7227 4.88422 38.4959 3.3009 38.9017 1.40695L38.9864 1.01172H39.3906H43.4688H44.0645L43.9612 1.59841C43.3645 4.98754 42.1818 8.08409 40.4116 10.8833C38.6008 13.7845 35.831 15.2305 32.1836 15.2305C31.0662 15.2305 29.763 15.0077 28.2825 14.5778L28.2758 14.5759L28.2758 14.5758C27.4154 14.3129 26.1487 13.8627 24.4824 13.2291L24.4816 13.2287L17.3097 10.4866L17.3047 10.4846L17.3047 10.4846C16.4431 10.1445 15.5468 9.88346 14.6152 9.70168L14.6129 9.70123C13.6917 9.51699 12.954 9.42969 12.3906 9.42969C10.5732 9.42969 9.17869 10.1219 8.15226 11.5118L26.5652 6.46025ZM26.5652 6.46025L18.7623 3.40235C18.7621 3.40225 18.7618 3.40216 18.7616 3.40207C17.4836 2.89575 16.1575 2.54609 14.7843 2.35305C14.013 2.23273 13.2736 2.17188 12.5664 2.17188C10.9812 2.17188 9.56745 2.46474 8.33866 3.06659L8.33865 3.06658L8.33499 3.06841C7.13715 3.66733 6.03069 4.58248 5.01168 5.79559L4.99487 5.8156L4.98024 5.83726C3.79354 7.59357 2.94834 9.19255 2.46048 10.6312C1.98274 12.0169 1.54414 13.6911 1.14298 15.6497L1.02002 16.25H1.63281H5.74609H6.11153M26.5652 6.46025L6.11153 16.25M6.11153 16.25L6.22249 15.9018M6.11153 16.25L6.22249 15.9018M6.22249 15.9018C6.89885 13.7794 7.54695 12.3335 8.15222 11.5119L6.22249 15.9018Z" stroke="#39C9C0"/>
</svg>
