<svg width="42" height="15" viewBox="0 0 42 15" fill="none" xmlns="http://www.w3.org/2000/svg">
<path d="M10.9336 1.16016C11.6133 1.16016 12.3281 1.21875 13.0781 1.33594C14.4141 1.52344 15.7031 1.86328 16.9453 2.35547L24.75 5.41406C25.9453 5.88281 26.9297 6.23438 27.7031 6.46875C28.9453 6.82031 30.0352 6.99609 30.9727 6.99609C32.6836 6.99609 34.1367 6.32812 35.332 4.99219C36.5273 3.63281 37.3359 1.96875 37.7578 0H41.8359C41.25 3.32812 40.0898 6.36328 38.3555 9.10547C36.6445 11.8477 34.043 13.2188 30.5508 13.2188C29.4961 13.2188 28.2422 13.0078 26.7891 12.5859C25.9453 12.3281 24.6914 11.8828 23.0273 11.25L15.8555 8.50781C14.9648 8.15625 14.0391 7.88672 13.0781 7.69922C12.1406 7.51172 11.3672 7.41797 10.7578 7.41797C8.78906 7.41797 7.24219 8.17969 6.11719 9.70312C5.46094 10.5938 4.79297 12.1055 4.11328 14.2383H0C0.398438 12.293 0.832031 10.6406 1.30078 9.28125C1.76953 7.89844 2.58984 6.33984 3.76172 4.60547C4.74609 3.43359 5.80078 2.56641 6.92578 2.00391C8.07422 1.44141 9.41016 1.16016 10.9336 1.16016Z" fill="#39C9C0"/>
</svg>
