<svg width="24" height="24" viewBox="0 0 24 24" fill="none" xmlns="http://www.w3.org/2000/svg">
<path fill-rule="evenodd" clip-rule="evenodd" d="M11.9999 1C8.244 1.00117 4.8055 3.10678 3.09721 6.45166C1.38891 9.79654 1.69893 13.8166 3.89986 16.86L2.99986 19.6C2.93799 19.7789 2.9847 19.9775 3.11986 20.11C3.21525 20.2057 3.34473 20.2597 3.47986 20.26H3.62986L6.47986 19.34C10.0479 21.7006 14.7223 21.5299 18.1086 18.9154C21.495 16.301 22.8431 11.8219 21.4624 7.77267C20.0817 3.72341 16.278 1.00101 11.9999 1ZM19.9999 11C19.9999 15.4183 16.4181 19 11.9999 19C7.58158 19 3.99986 15.4183 3.99986 11C3.99986 6.58172 7.58158 3 11.9999 3C14.1216 3 16.1564 3.84286 17.6567 5.34315C19.157 6.84344 19.9999 8.87827 19.9999 11ZM15.2799 15.68C15.9831 15.5571 16.5912 15.1185 16.9299 14.49C17.1018 14.122 17.1576 13.7105 17.0899 13.31C17.0414 13.2293 16.9148 13.1681 16.7416 13.0844C16.7002 13.0644 16.6561 13.0431 16.6099 13.02C16.3699 12.9 15.1599 12.3 14.9299 12.23C14.7127 12.1255 14.4517 12.1982 14.3199 12.4C14.1242 12.7083 13.907 13.0023 13.6699 13.28C13.5082 13.431 13.2718 13.4704 13.0699 13.38C12.3323 13.0983 11.654 12.6811 11.0699 12.15C10.5331 11.6528 10.0716 11.0801 9.69986 10.45C9.59116 10.274 9.63452 10.0442 9.79986 9.92C9.8665 9.8367 9.93623 9.76573 10.0056 9.69512C10.0612 9.63857 10.1165 9.58225 10.1699 9.52C10.2776 9.40326 10.3685 9.27198 10.4399 9.13C10.52 8.98714 10.52 8.81286 10.4399 8.67C10.3799 8.55 9.85986 7.27 9.68986 6.85C9.51986 6.43 9.39986 6.43 9.14986 6.43H8.86986C8.55241 6.41673 8.24166 6.52388 7.99986 6.73C7.41161 7.2527 7.07648 8.00308 7.07986 8.79C7.15864 9.716 7.50621 10.5988 8.07986 11.33C9.11303 12.931 10.5658 14.2177 12.2799 15.05C14.2799 15.85 14.8399 15.78 15.2799 15.68Z" fill="#8D8D8D"/>
</svg>
